<svg width="17" height="17" viewBox="0 0 17 17" fill="none" xmlns="http://www.w3.org/2000/svg">
<path d="M15.8282 16.0871C16.3134 16.0871 16.7069 15.6937 16.7069 15.2084V1.04496C16.7069 0.559588 16.3135 0.16626 15.8282 0.16626H1.66484C1.17946 0.16626 0.786133 0.559588 0.786133 1.04496V15.2084C0.786133 15.6936 1.1794 16.0871 1.66484 16.0871H15.8282Z" fill="#3C5A99"/>
<path d="M11.7714 16.0871V9.92166H13.8408L14.1507 7.51888H11.7714V5.98485C11.7714 5.28919 11.9646 4.81513 12.9621 4.81513L14.2345 4.81457V2.6655C14.0144 2.63622 13.2591 2.5708 12.3804 2.5708C10.546 2.5708 9.29008 3.69055 9.29008 5.74689V7.51888H7.21533V9.92166H9.29008V16.0871H11.7714Z" fill="white"/>
</svg>
