<svg width="17" height="17" viewBox="0 0 17 17" fill="none" xmlns="http://www.w3.org/2000/svg">
<path d="M15.8099 8.31166C15.8099 7.74438 15.759 7.19893 15.6644 6.67529H8.12988V9.76984H12.4353C12.2499 10.7698 11.6862 11.6171 10.839 12.1844V14.1917H13.4244C14.9372 12.7989 15.8099 10.748 15.8099 8.31166Z" fill="#4285F4"/>
<path d="M8.13005 16.1299C10.29 16.1299 12.101 15.4135 13.4246 14.1917L10.8391 12.1844C10.1228 12.6644 9.20641 12.9481 8.13005 12.9481C6.04641 12.9481 4.28277 11.5408 3.65368 9.6499H0.980957V11.7226C2.29732 14.3372 5.00278 16.1299 8.13005 16.1299Z" fill="#34A853"/>
<path d="M3.65352 9.64984C3.49352 9.16984 3.40261 8.65711 3.40261 8.12984C3.40261 7.60256 3.49352 7.08984 3.65352 6.60984V4.53711H0.980792C0.438974 5.61711 0.129883 6.83893 0.129883 8.12984C0.129883 9.42075 0.438974 10.6426 0.980792 11.7226L3.65352 9.64984Z" fill="#FBBC05"/>
<path d="M8.13005 3.3117C9.30459 3.3117 10.3591 3.71534 11.1882 4.50806L13.4828 2.21352C12.0973 0.92261 10.2864 0.129883 8.13005 0.129883C5.00278 0.129883 2.29732 1.92261 0.980957 4.53716L3.65368 6.60988C4.28277 4.71897 6.04641 3.3117 8.13005 3.3117Z" fill="#EA4335"/>
</svg>
